<svg xmlns="http://www.w3.org/2000/svg" viewBox="0 0 82.64 51.03"><defs><style>.cls-1,.cls-2{fill:#312a20;fill-rule:evenodd}.cls-2{fill:#d4d800}</style></defs><title>Ресурс 4</title><g id="Слой_2" data-name="Слой 2"><g id="Layer_1" data-name="Layer 1"><path class="cls-1" d="M48.75 15c.65-.61.88.48 0 0zm-.53 2c.48.16-.14.78-.35.35.05-.23.35-.16.35-.35z"/><path class="cls-2" d="M53.46 45.08c-7.24 2.77-20.8 2.45-26.72-1.22-1.51.84-2.3 5-4.72 5.07-2 0-2.71-2.43-3-3.67-.4-1.94-.1-4.51-.7-5.94-.48-1.23-2.32-2.32-3.63-3.84a41.06 41.06 0 0 1-7.86-12.93c-.17-.47-.13-1.05-.35-1.39-.86-1.36-3-1.93-4.19-3.15A6.1 6.1 0 0 1 0 13c.43-5.37 9.69-8.44 14.51-9.83 7-2 14.17-2.09 21.49-3 3.7-.45 8.46 0 12.4.17a91.21 91.21 0 0 1 21.65 3.88c3.31 1 6.66 2.1 8.91 3.84 1.91 1.47 3.8 4.27 3.67 6.46-.23 3.81-3.54 4.91-6.46 7a41.89 41.89 0 0 1-14 19.92c-.47 2.26-.2 5.38-1.23 7.33-.51 1-2.18 2.41-3.32 2.27-1.98-.27-2.85-4.83-4.16-5.96zM29.54 8.23a1.43 1.43 0 0 0 1-.17c.07-.65-.14-1-.7-1.05-.21.45-.6.65-.3 1.22zM28 8.58c.27-.25.56-.85.18-1.22h-.7A.74.74 0 0 0 28 8.58zm4 0c.71.07 1-.27.87-1a.68.68 0 1 0-.87 1zm-6.81.35c.23.18.64.17.87.35-.12-.53.3-.51.18-1-.26-.09-.44-.26-.7-.35-.18.26-.54.4-.37 1zm8.73.18c.41.41.86 0 1.4 0-.18-.47-.29-1-.87-1-.28.22-.73.29-.55 1zM58 9.45h.7a1.19 1.19 0 0 0 0-1H58a.84.84 0 0 0 0 1zm2.1.18a.63.63 0 1 0 .17-1.22c-.27.43-.42.68-.17 1.22zm-4.37-.7a1.51 1.51 0 0 0 .18 1.07c.57 0 .84-.21.87-.7-.15-.26-.26-.55-.7-.53-.08.12-.14.23-.35.16zM24 10.33c0-.2.19-.27.34-.35 0-.62-.25-.92-.87-.87-.31.54-.25 1.21.53 1.22zm38-.18a.64.64 0 0 0 .7-1H62zm-25.85.35c.49.15.45-.25.87-.17 0-.41-.3-.52-.17-1.05h-.7a1.09 1.09 0 0 0 .02 1.22zm-6.81-.35c0 .56.4.77 1.05.7-.2-.38 0-1.13-.53-1.22-.15.18-.32.37-.5.52zm24.45.7c.49.15.46-.25.88-.17.12-.54-.18-.64-.18-1h-.7c-.33.32-.06.77.02 1.17zm-26.55 0c.47.28.67.4 1 0a.94.94 0 0 0-.87-.87c.21.49-.18.45-.11.87zm5.24.35c.27-.54.21-1.22-.52-1.22-.42.47-.43 1.31.54 1.22zm31.44 0c.62 0 .87-.83.52-1.22h-.52a1.09 1.09 0 0 0 .02 1.22zm-42.26-.35c0 .61.15 1 .87.87.2-.47.08-.43 0-1a1.09 1.09 0 0 0-.85.13zm16.08 1.05c.14 0 .35 0 .35.17.48.13.35-.34.7-.35a.89.89 0 0 0-.7-1 1.32 1.32 0 0 0-.35 1.18zm14 0c.34.08.44.37.88.35.39-.72.08-1.52-.7-1.57-.09.41-.31.65-.21 1.22zm-26.19 0h.7c.2-.48.08-.44 0-1.05h-.7a.86.86 0 0 0-.03 1.05zm8.38.17c.64.07.73-.43.87-.87-.24 0-.29-.29-.52-.35-.22.36-.87.71-.38 1.22zm24.1.18c.25-.52.21-1.07-.35-1.22-.68.28-.68 1.33.32 1.22zm1.75 0c0-.14.15-.2.35-.18 0-.53.1-1.15-.52-1a.67.67 0 0 0 .14 1.18zm5.59.35c.63 0 .77-.52.7-1.22a.77.77 0 0 0-.73 1.22zm-4 0c.74.16.75-.42.7-1h-.7c-.1.4-.37.67-.05 1zm-6.16.4h.7a1.1 1.1 0 0 0 0-1.23h-.53c-.25.39-.38.64-.17 1.23zm-30.74.35c.26-.55.2-1.22-.52-1.23a.67.67 0 0 0 .52 1.18zm5.59-.18c.66-.16.38-1.41-.52-1-.01.44-.11 1.05.52.95zm5.41-.52c-.07.66.37.79.7 1.05.07-.46.52-.53.53-1.05-.2 0-.28-.2-.35-.35-.56-.2-.54.22-.88.3zm-14.14 1a.8.8 0 0 0-.53-1.23.69.69 0 0 0 .53 1.23zm5.93-.35c.43-.08.38.32.88.17a.86.86 0 0 0 0-1.05c-.69-.1-.77.39-.88.88zm4.37-.7c-.07.65.14 1 .7 1.05 0-.14.14-.21.35-.18v-.87a.86.86 0 0 0-1.05 0zm7.51 1.05a1.52 1.52 0 0 0 1 .17c0-.13 0-.35.17-.35.22-1.23-1.31-.92-1.17.18zm11.7-.35c-.07.43-.68 0-.52-.35.17 0 .21-.14.35-.18 0 .21-.31.4 0 .53 0-.24.25-.34.17-.7-.57 0-.84.21-.87.7.33.07.32.5.87.35.16-.07.16-.85 0-.35zm12.23.35c.49 0 .74-.31.7-.88-.24 0-.34-.25-.7-.17.08.55-.38.68 0 1.05zm-10 0c.15.25.26.55.7.52.26-.15.56-.26.53-.7-.16-.26-.27-.55-.7-.52-.22.15-.52.26-.49.7zm13.28.69c.87.34.92-1.15.35-1.22a1.28 1.28 0 0 0-.31 1.22zm-7.16 0c0-.13 0-.34.17-.34 0-.44-.27-.55-.52-.7-.35.27-.55 1.23.39 1.04zm-33 .35c.43-.47.45-1.31-.53-1.22-.35.43-.1 1.29.56 1.22zm7.33-.87c0 .62.25.91.88.87.75-.69-.17-1.6-.85-.87zm22.88.87h.87c.19-.46.13-1-.52-1-.42-.02-.32.54-.32 1zm4.19.18c.73.16 1.07-1.3.18-1.22-.24.24-.52.85-.15 1.22zm-37.2 0q.06-.93-.87-.87a.62.62 0 0 0 .9.87zm13.8.52a.94.94 0 0 0 .87-1.05c-.26-.09-.44-.25-.7-.34a1.12 1.12 0 0 0-.14 1.39zm27.07-.17c.74.16.75-.42.7-1.05h-.53a1.52 1.52 0 0 0-.14 1.05zm-33.88.35c0-.14 0-.35.17-.35 0-.49-.3-.75-.87-.7-.36.48-.14 1.32.73 1.05zm18.16-.7c0 .49.31.74.88.7.4-.39.28-.58 0-1.05-.53-.15-.51.27-.85.35zm3 .87a1.52 1.52 0 0 0 1.05-.17v-.88c-.7-.39-1.2.11-1.05 1.05zm-30.91-.17c0-.61-.15-1-.88-.88-.12.71.17 1 .88.88zm34.37.35a.64.64 0 1 0-.35-1.23c-.33.43-.4 1.15.35 1.23zm-14.85-.18c.62-.3.43.12 1.05.18 0-.14 0-.35.17-.35 0-.56-.39-.77-1-.7.06.42-.37.38-.18.87zm22.18.18c0-.21.28-.19.52-.18v-.87h-.65c.15.62-.45.9.17 1.05zm-34.76.17a.79.79 0 0 1 .53.18c.1-.37.43-.5.35-1-.33 0-.39-.2-.7-.18-.08.32-.42.73-.14 1zm4 .35c.43 0 .54-.27.87-.35v-.87c-.33 0-.38-.2-.7-.18-.59.38.26.96-.11 1.4zM25 16.27c.35-.33.06-.64 0-1h-.7c-.3.51-.1 1.06.7 1zm10.13-.53c.18.11 0 .73.7.7.38-.47.2-.44.35-1.05a.73.73 0 0 0-1.06.35zm32.49.7c-.14-.43.63-1.21-.17-1.22-.34.2-.68 1.3.16 1.22zM7 16.09h.18c.68.96-.59-1.24-.18 0zm.88-.52c-.14 1.05.8.11 0 0zm1.4.7c0-.4 0-.66-.35-.7-.05.43.07.65.35.7zm1.22.73c.29-.57 0-.87-.35-1.22.03.45-.15 1.16.35 1.22zm11.35.18a1.13 1.13 0 0 0 .87-.18c.06-.69-.33-.94-1-.87-.17.5.28.47.13 1.01zm17.29-.7c-.26-.09-.44-.26-.7-.35-1.44.63.92 2.3.7.31zm19.39-.35h-.88c-.35 1.1 1.23 1.1.88-.04zm1 1.05c.81.17 1-.31.87-1.05-.77-.21-.93.27-.82 1.01zm5.58 0c.88.33 1-1.2.18-1.05-.16.23-.51.64-.13 1.01zm-38.94-.53c-.07.66.14 1 .7 1.05 0-.19.19-.27.34-.35 0-.71-.43-1.01-.99-.74zm26.89 1.05c.57.05.84-.2.88-.7 0-.22-.23-.24-.18-.52-1.01-.2-1.11.7-.65 1.18zm-19.91 0h.7a.86.86 0 0 0 0-1.05h-.7c-.15.44-.03.4.05 1.01zm14.32-.35a.76.76 0 0 0 1.23 0 .62.62 0 1 0-1.18-.04zm3.85-.52c-.11-.1-.83-.41-.88 0-.85.81 1.39 1.37.93-.04zm4.54 1.05h.7a1.52 1.52 0 0 0 .17-1.05c-.66-.56-1.33.37-.82 1.01zm7.33-.18c.69.11.78-.39.88-.87-.24-.05-.34-.25-.7-.18a1.51 1.51 0 0 0-.13 1.01zm-51.3.3a.84.84 0 0 0-.34-1.22.82.82 0 0 0 .34 1.22zm17.65-1c-.05.63.25.92.87.88a1.17 1.17 0 0 0 .17-.88.84.84 0 0 0-1.04 0zm-9.61 1c.58-.1.25-.66.17-1.05h-.69c0 .54-.02 1.05.52 1.05zm21-.7a1.17 1.17 0 0 0 .17.88c.65.07 1-.14 1-.7-.14 0-.2-.15-.17-.35-.43-.01-.84-.02-1.04.18zM61 18.36c1 .41 1.17-1.06.53-1.22-.43.33-.88.62-.53 1.22zm-36.5 0a1.46 1.46 0 0 0-.18-1.05h-.52c-.42.45-.19 1.33.67 1.05zm11.5-.7c0 .44.27.54.35.88.43 0 .54-.28.87-.35-.04-.84-.72-.99-1.22-.53zm31.44 1.05c.67.14 1-1.07.34-1.22-.17.37-.78.78-.34 1.22zm-38.78.18c0-.14.15-.21.35-.18.07-.65-.14-1-.7-1.05-.48.54-.23.94.35 1.23zm3.32 0c0-.14.15-.21.35-.18.07-.71-.18-1.1-.87-1.05-.27.55-.21 1.22.54 1.23zm-23 0c0-.51 0-.89-.35-1.05-.05.46-.15 1.03.3 1.05zm-.88 0c-.1-.31-.1-.73-.4-.89-.02.45-.03.86.35.89zm1.92.35a.89.89 0 0 0-.4-1.24c-.02.56 0 1.07.38 1.24zm3.32.17a.82.82 0 0 0-.35-1.22.84.84 0 0 0 .3 1.22zm45.41-.17c.71.06 1-.28.88-1-.96-.19-1.18.45-.93 1zm6.81 0c.64.11.69-.37.7-.88-.22 0-.24-.22-.52-.17-.18.35-.6.69-.23 1.05zm-43.14.17a.65.65 0 0 0-.69-1.05c-.26.49-.16 1.11.64 1.05zm15.72-.35c.41.18.57.6 1.23.52a1.12 1.12 0 0 0 0-1.22c-.48 0-.36.29-.7 0-.11.36-.4.47-.58.7zm16.42.52h.7c0-.41.3-.51.17-1a.68.68 0 0 0-.92 1zm2.27-.17c.33.34.64.05 1 0 .37-1.48-1.25-1.12-1.05 0zm-30.21.35a.74.74 0 0 0-.7-1.22c-.12.7.01 1.21.65 1.22zm7.16-.87q-.06.93.87.87a1.47 1.47 0 0 0 .17-1.05c-.72-.08-.67-.19-1.09.18zm18 .69c.71.19 1.33.15 1.23-.87-.69-.49-1.42.08-1.3.87zm-22-.69c-.14.49.25.45.17.87.63 0 .92-.25.88-.87a.86.86 0 0 0-1.12 0zm17.29 0c0 .13 0 .34-.17.35 0 .68.64.63 1 .87 0-.33.45-1.16 0-1.4 0 .38-.65.08-.9.18zm2.62 1c.68 0 1.18-.21 1.05-1-.89-.52-1.54.31-1.12 1.04zm14-.17c.8.16.91-.37.87-1.05-.91-.13-1.07.33-.97 1.09zm-52.22.17c0-.52 0-1.06-.52-1-.11.53-.2 1.11.42 1.04zm8.91.53a.74.74 0 0 0-.53-1.22.75.75 0 0 0 .43 1.26zm20.78-.88v.7c.23.25.83.11 1 .35 0-.72.3-1 0-1.39-.16.43-.98.04-1.1.38zm20.44.7c.8.16.91-.37.87-1-.92-.18-1.08.3-.97 1.04zm-36.86.35a1.47 1.47 0 0 0-.17-1.05H24c-.45.46-.22 1.37.64 1.09zm3.5-.17a.86.86 0 0 0 1.05 0c.08-.55-.22-.72-.53-.88-.25.35-.76.27-.62.92zm3.32 0c.2.2.61.19 1 .17.08-.71-.18-1.1-.87-1.05.01.46-.38.46-.23.92zm5.41.35c.25 0 .29-.29.52-.35a.84.84 0 0 0-.87-.88c-.48.46-.62 1.24.25 1.27zm22.88 0a.84.84 0 0 0 .7-1.23h-.7c-.34.55-.53.91-.1 1.27zm-45.06.35a.77.77 0 0 0-.35-1.23.83.83 0 0 0 .25 1.27zm43.31 0c.79-.05 1.2-1.21.18-1.23-.51.11-.59.96-.28 1.27zm8.98-.12c.57.05.85-.21.88-.7-.28 0-.14-.44-.52-.35-.16.29-.44.43-.36 1.05zm-54.84 0h.53c.05-.46-.07-.75-.53-.7zm43.84.35c.71.07 1-.27.87-1h-.87c-.08.34-.34.65 0 .98zM53.81 21c.2.16 0 .39.35.7.33 0 .38-.2.7-.18 0-.42 0-.84-.17-1h-.53c.05.28-.24.28-.35.48zm11.35.52c.69.11.78-.39.88-.87-.23 0-.25-.22-.53-.17-.15.29-.51.42-.35 1.02zm-38.77 0c.42-.07.38.32.87.18a.86.86 0 0 0 0-1.05q-.93-.08-.87.85zm3.49-.69c0 .57.21.84.7.87.08-.33.5-.32.35-.87a.86.86 0 0 0-1.05-.02zm3.5.52c.12.35.46.47.87.52a1.47 1.47 0 0 0 .18-1c-.43-.25-1-.19-1.05.46zm4.89.17a1.09 1.09 0 0 0 1.22 0c0-.56-.21-.84-.7-.87-.3.14-.61.35-.52.85zm13.1.18a1.43 1.43 0 0 0 1 .17c0-.31.47-1 0-1.22-.37.35-1.19.14-1 1.03zm-2.1.35h1v-.87a1.1 1.1 0 0 0-.87-.18 1.46 1.46 0 0 0-.13 1zm14 0c.8.16.91-.37.88-1.05-.85-.19-1.01.29-.91 1zM46.65 22a1.09 1.09 0 0 0 1.22 0v-.7a1.43 1.43 0 0 0-1-.17c.03.45-.36.41-.22.87zm12.05.52a.74.74 0 0 0 .7-1.22c-.63.04-.77.54-.7 1.25zm2.3-.14c.5 0 .89 0 1.05-.35-.26-.15 0-.26-.17-.7-.73-.05-.98.34-.88 1.05zm-40 .17c.27-.29 0-1-.7-.87-.1.6.03.99.7.87zm3.84.18a1.14 1.14 0 0 0 .87-.18.82.82 0 0 0-.87-.87.86.86 0 0 0-.02 1.05zm15.89-.88a.74.74 0 0 0 1.23.7v-.7c-.36-.34-.85-.08-1.25 0zm16.07.7c.41.75 1.49-.15.87-.87a.83.83 0 0 0-.89.87zM35.65 22c.09.43 0 1 .52 1s.52-.65.53-1.23a1.5 1.5 0 0 0-1.05.23zm-6.81 1.22a1.14 1.14 0 0 0 .17-.87 1.14 1.14 0 0 0-.87-.18c-.28.59.02 1.02.7 1.08zm3.16-.84c-.05.69.34.94 1.05.87 0-.13 0-.34.17-.35.05-.65-.81-.9-1.22-.52zm22.36.87c.25.09.44.26.7.35.26-.24.55-.85.17-1.22a.82.82 0 0 0-.89.87zm-30.57.52a1.13 1.13 0 0 0 .21-.87c-.33 0-.39-.19-.7-.17-.52.32-.38 1.13.47 1.04zm7.16 0a1.13 1.13 0 0 0 .18-.87c-.33 0-.39-.19-.7-.17-.49.32-.35 1.13.5 1.04zm6.46-.17c.54 0 1 .41 1.4 0v-.7a1 1 0 0 0-1.42.7zm14.5.35a1.46 1.46 0 0 0 1-.18v-.69a.69.69 0 0 0-1.02.92zm-2.1.35c.57-.08 1-.27.88-1.05-.88-.59-1.69.5-.9 1.05zm9.79-.18a.85.85 0 0 0 1-.87c-.5-.44-1.21.06-1.02.87zm-12.75 0c.31.16.44.49 1 .35.44-.65.29-1-.52-1.22-.18.27-.55.36-.5.87zm-20.61.18h1a.82.82 0 0 0-.87-.87 1.09 1.09 0 0 0-.15.87zm8.21-.7c-.07.65.13 1 .69 1 0-.2.2-.27.35-.35.05-.57-.2-.84-.7-.87-.05.18-.16.25-.36.22zm21.3.87c.31.33.45-.14 1.05 0 .2-1.2-1.15-.89-1.07 0zM40 24.12c0 .56.4.77 1.05.7-.07-.42.32-.38.18-.87-.37-.38-.97-.09-1.23.17zm17.82.18c.25-.1.9.2.87-.18-.21-.23-.84-.27-.86.18zm-21.3 1.05h1c.27-1.03-1.26-1.17-1 0zm-4-.35c.68.11.62 0 1 .17.12-.57-.98-.73-1.02-.17zM20.8 47.18c1.64-1 2.54-2.82 3.67-4.37-1.59-.8-3-1.78-4.54-2.62.23 2.39.2 5.04.87 6.99zM55.91 44c1 1.64 1.68 3.68 3.14 4.9.27-2.24 1.26-4.68.87-7-1.14.93-2.92 1.21-4.01 2.1z"/></g></g></svg>