<svg xmlns="http://www.w3.org/2000/svg" viewBox="0 0 85.55 44.17"><defs><style>.cls-1{fill:#00aed9;fill-rule:evenodd}</style></defs><title>Ресурс 1</title><g id="Слой_2" data-name="Слой 2"><path class="cls-1" d="M4.15 43.55a7.21 7.21 0 0 0-.82-.5 6.23 6.23 0 0 1-.62-.51 7.23 7.23 0 0 1-1.46-2.26c-.07-.66-.28-1.27-.31-2s0-1.5 0-2.24c0-.55-.16-1.07-.17-1.81-.08-4.37-.33-8.58-.38-13.06 0-2.42-.21-5-.24-7.49V9.77a34.26 34.26 0 0 1 0-3.91c0-.37.2-.55.13-1 .22-.14.07-.4.18-.68 0 0 .13-.06.14-.1s.06-.4.19-.52.08-.4.21-.56a6.59 6.59 0 0 1 1.24-1.35 3.42 3.42 0 0 1 .56-.35c.07 0 .08-.12.15-.15A6.34 6.34 0 0 1 4 .74c.1 0 .11-.09.23-.1a2.81 2.81 0 0 0 .29 0A3.66 3.66 0 0 1 5 .48 21.93 21.93 0 0 1 7.71.41l2.72-.07c1.78-.05 3.56 0 5.29 0 2.72-.07 5.46-.14 8-.06.9 0 1.81 0 2.72-.07 3.61-.09 7.21 0 10.73-.13C39 0 40.79 0 42.58 0c.85 0 1.73.1 2.58.08a16.17 16.17 0 0 1 3.29.06 6 6 0 0 1 1.82.52A5 5 0 0 1 52 2.48c.25.38.5.82.73 1.22v.15c0 .02 0 0 .14.23s.12.09.15.14.09.37.19.47h.1v.19c0 .04.11.09.15.14s0 .16 0 .14.11.09.15.14 0 .17 0 .24.11.06.15.14c.12.28.28.6.44.89a57.11 57.11 0 0 0 3.36 5.31l.44.56c.13.18.25.4.39.57a6.18 6.18 0 0 1 .53.65c.08.12.25.19.38.33a16.55 16.55 0 0 0 1.46 1.44 11.51 11.51 0 0 0 1.77 1.1c.27.13.57.23.82.36a2.29 2.29 0 0 0 .29.18h.24c.07 0 0 .12.1.14s.16 0 .23 0 .07.13.1.14.17 0 .24 0 0 .12.1.14.17 0 .23 0a12.09 12.09 0 0 0 1.73.53 7.68 7.68 0 0 0 1.48.15c.16 0 .24.12.38.14a15.53 15.53 0 0 0 3-.08c.21 0 .42-.13.62-.15.81-.13 1.61-.07 2.33-.21.36-.26.79-.1 1.24-.17.08 0 .13-.13.19-.15a7.09 7.09 0 0 1 1-.07c.19-.2.48-.13.71-.17.65-.1 1.43-.25 2.19-.39a3.18 3.18 0 0 1 .33-.1 3.09 3.09 0 0 0 .43 0c.11 0 .16-.13.28-.15s.27 0 .39 0 .17-.12.28-.15.29 0 .43 0a3.42 3.42 0 0 1 .67-.16c.26 0 .5.19.76.12a3.17 3.17 0 0 1 1.16 1.17 6 6 0 0 1 .84 2c0 .2.06.4.1.62s.13.37.15.57a8.67 8.67 0 0 1-.11 2.63c0 .16-.1.19-.14.33s0 .26 0 .39A6 6 0 0 1 83.39 27h-.19c-.04 0 0 .13 0 .15a2.08 2.08 0 0 0-.24.05 6.47 6.47 0 0 0-.71.21c-.52-.1-1-.08-1.48-.2-.1 0-.15-.11-.24-.14s-.26 0-.38 0-.15-.07-.3-.07h-.38l-1.53-.29c-.59-.12-1.48-.27-2.15-.38h-.38c-.11 0-.13-.13-.19-.13-.44-.06-.89 0-1.34-.11-.21 0-.41-.11-.62-.13s-.45 0-.67 0-.18-.08-.29-.09-.27 0-.38 0-.38-.11-.58-.13a17.2 17.2 0 0 0-1.9 0 14.89 14.89 0 0 0-1.91.1c-.18 0-.26.12-.43.15s-.36 0-.52 0-.25.12-.38.15-.33 0-.48.06a8.45 8.45 0 0 0-.81.26 14 14 0 0 0-2.23 1c-.23.12-.48.22-.71.35v.1c-.2.08-.36.26-.62.3a25.86 25.86 0 0 0-3.3 3c-.24.3-.45.6-.71.88a17.17 17.17 0 0 0-2 2.77c-.11.17-.24.33-.33.49s0 .14 0 .19-.13 0-.14 0c-.15.24-.26.51-.42.78s-.19.31-.28.48c-.37.68-.78 1.33-1.17 2s-.71 1.34-1.07 2a10.81 10.81 0 0 1-1.41 1.75c-.39.16-.65.47-1 .65s-.79.27-1.19.46c-.42-.09-.85.15-1.24.17-1 .07-2-.09-3.1-.06l-3.2.08h-6.15c-1.05 0-2.09.06-3.15 0-2 0-4.14.09-6.3.06-1 0-2 .07-3 0-.32 0-.64-.11-1-.12-.82 0-2 .1-3.14.13-1.66 0-3.47.06-5 0-2-.11-4.09.27-6.11.15a8.68 8.68 0 0 1-1.43-.25h-.39a6.36 6.36 0 0 0-.97-.27zm77.72-22.29c-.9-1.23-3.17.42-2 1.47 1.25.78 2.63-.33 2-1.47z" id="Layer_1" data-name="Layer 1"/></g></svg>