<svg xmlns="http://www.w3.org/2000/svg" viewBox="0 0 14.32 73.96"><defs><style>.cls-1{fill:#930083;fill-rule:evenodd}</style></defs><title>Ресурс 14</title><g id="Слой_2" data-name="Слой 2"><path class="cls-1" d="M12.65 66.24c1-.49 2.15-.73 1.44-1.87a13 13 0 0 0-2-.3c-.62-.07-1.8 0-1.63-.72.09-.36 1.22-.52 1.69-.67 1.05-.34 2.14-.54 1.38-1.62a9.18 9.18 0 0 0-2.17-.24c-.56 0-1.84 0-1.68-.73.06-.28.53-.28.78-.36a15.19 15.19 0 0 0 2.65-1 1.09 1.09 0 0 0-.12-1 14.47 14.47 0 0 0-2.77-.31 13.56 13.56 0 0 1-2.89-.24 2 2 0 0 1-1.21-1.2 4.12 4.12 0 0 1 .24-1.57 118.19 118.19 0 0 0 2-21.8c.1-.24.21-.4.36-.41s1.9-.19 1.86-.42c-1.85-5.78-.95-19.14 0-25.65.26-2.07-2.69-1-2.75-2.71a2.09 2.09 0 0 0-.25-1A9.86 9.86 0 0 0 7.47 1C7.43.73 7.33 0 7 0s-.26.3-.32.49a8 8 0 0 0-.24 2.14 2.44 2.44 0 0 0-.18.87c-.06 1.74-3 .64-2.75 2.71 1 6.51 1.85 19.87 0 25.65a11.11 11.11 0 0 1 1.68.49 124.71 124.71 0 0 1-1.33 20c-.28 1.78-.81 4.37-2.1 5.06-.29.15-.68.08-.85.3-.24 3-1.13 6.33-.84 9.7a6.74 6.74 0 0 0 3.79 5.37c.19.24.4-.2.55 0a6.92 6.92 0 0 0 2.89 1.08c.34 0 .8.19 1.08-.12.12-.76-.88-.72-.78-1.27 1.24-.33 4.13.76 4.7-.66-.38-.55-1.2-.73-1.75-1-.18-.1-.54-.16-.54-.43.17-.57.95-.28 1.62-.3 1.24 0 2.41 0 2.35-1.08a8 8 0 0 0-1.56-.84c-.46-.21-1.49-.39-1.45-1s1.25-.72 1.68-.92zm-7.11-.6c-.09 1.23-1 2.6-2.11 1.74-.91-.72-1.09-4 .3-4.39 1.15-.33 1.9 1.25 1.81 2.65z" id="Layer_1" data-name="Layer 1"/></g></svg>