<svg xmlns="http://www.w3.org/2000/svg" viewBox="0 0 13.84 77.17"><defs><style>.cls-1{fill:#d76446;fill-rule:evenodd}</style></defs><title>Ресурс 21</title><g id="Слой_2" data-name="Слой 2"><path class="cls-1" d="M13.83 69.4a12.41 12.41 0 0 0-.75-3.2 117.26 117.26 0 0 1-4.3-27.49c.17-.16.74.07.68-.3 0-2-.43-4.36-.58-6.37 1-.05 1.91-.17 1.87-.41-1.84-5.74-.94-19 0-25.47.25-2-2.67-1-2.73-2.69a2.06 2.06 0 0 0-.25-1 9 9 0 0 0-.23-2C7.49.3 7.42 0 7.22 0s-.43.73-.47 1a14.23 14.23 0 0 0-.12 1.56 2.37 2.37 0 0 0-.19.89c-.07 1.73-3 .64-2.74 2.69 1 6.47 1.84 19.73 0 25.47 0 .22.78.34 1.66.4-.15 2-.53 4.39-.53 6.44.06.21.6 0 .62.24a108.89 108.89 0 0 1-1.84 17.8A85 85 0 0 1 .92 66 14 14 0 0 0 0 69.22a7.26 7.26 0 0 0 2 6 6.73 6.73 0 0 0 4.26 1.94A6.38 6.38 0 0 0 11.83 75a8.14 8.14 0 0 0 2-5.6zM3.55 75.1A5.66 5.66 0 0 1 1.42 71c-.18-2.23.65-3.89 1.19-5.75.44-1.52.89-3 1.19-4.47-.18 4.36-2.62 10.18-.25 14.34l.06.05s-.06-.03-.06-.07zm.31-.92c-1.16-2.94-.28-6.32.26-9.62 1-6 1.59-15 2.34-21a85 85 0 0 1-.28 13.33c-.23 2.22-.48 4.46-.74 6.6a45.68 45.68 0 0 0-.7 6.66 16.11 16.11 0 0 0 1.19 6.15 3 3 0 0 1-2.07-2.12zm3.89 1.15a1.83 1.83 0 0 1-.5.85c-.67 0-.83-.57-1-1-1.32-3.61-.5-8.09 0-12 .29-2.31.56-4.59.75-6.84.33 3.19.58 6.72.88 10.17.23 2.66.71 6.29-.13 8.82zM7.59 43.6c.51 4.67 1 12.27 1.54 17.15.48 4.61 1.9 10.1-.31 13.91 0-1.11.25-2.35.25-3.56 0-2-.33-4.1-.5-6.18-.51-6.04-1.26-14.84-.98-21.32zm4.8 28.7c-.43 2-1.86 3.11-3.76 3.88-.18-.1.1-.27.13-.31a11.92 11.92 0 0 0 2-7.44c-.11-3-1-6.11-1.07-9 .06 0 .06 0 .07.06.57 2.48 1.31 5.51 2.07 8.05a9 9 0 0 1 .56 4.76z" id="Layer_1" data-name="Layer 1"/></g></svg>