<svg xmlns="http://www.w3.org/2000/svg" viewBox="0 0 40.94 31.71"><defs><style>.cls-1{fill:#e51675;fill-rule:evenodd}</style></defs><title>Ресурс 9</title><g id="Слой_2" data-name="Слой 2"><path class="cls-1" d="M21.59 2.8a5.64 5.64 0 0 1 4-1.35c4.11.23 6.66 3 8.49 5.94.89 1.43 2 3.64 4.41 3.31.05-.85-.89-1.26-1.52-1.7.4-1 1.22-2 2.63-1.44a3.13 3.13 0 0 1 1.19 3.56 4.82 4.82 0 0 1-1 1.53 9.51 9.51 0 0 1-1.28 1.27c-1.45 1-3.95 1.15-6.28.85a17.44 17.44 0 0 1-10.61-5.6c-.24 2.2.46 3.92-.08 5.69-.14.46-.62.84-.85 1.27a7.28 7.28 0 0 0-.68 1.7c0 .53.74 1 1.36 1.19.78.29 1.51.24 1.44 1-.09 1-2.64.92-2.88 1.7.23.54.7.77 1.35 1s1.42.26 1.53.77c.31 1.38-2.4.91-2.88 1.95a1.91 1.91 0 0 0 1.35 1.1c.68.22 1.47.06 1.53.76.08.91-1.51.89-2.2 1.28-.46.25-1 .78-1 1.36.05 1.07 1.34.92 2.29 1.44-.16.44-.82.27-1.1.25a2.2 2.2 0 0 1-1.11-4.16c-.36-.64-1.08-1-1.1-1.86a2.4 2.4 0 0 1 1.27-2A2 2 0 0 1 19.9 20c-.57-.72-1.24-.86-1.28-1.95-.05-1.35 1.38-2.65 1.62-4a8.41 8.41 0 0 0-.09-1.61c0-1.24.12-2.44 0-3.83-.88.5-1.64.92-2.71 1.45a15.4 15.4 0 0 1-2.64 1.19c-4.72 1.29-11.35.12-13.66-2.55A4.3 4.3 0 0 1 0 5.18a4.81 4.81 0 0 1 1-2.29c.63-.64 2.55-1 3.14.09-.06.5-.36.77-.51 1.18-.44.28-.94.09-1.1.51C2.05 5.81 4 6.36 5 6.2 6.68 5.94 7.74 4 8.78 3a9.41 9.41 0 0 1 6.36-3 8 8 0 0 1 6.45 2.8z" id="Layer_1" data-name="Layer 1"/></g></svg>