<svg xmlns="http://www.w3.org/2000/svg" viewBox="0 0 8.8 67.19"><defs><style>.cls-1{fill:#f3c644;fill-rule:evenodd}</style></defs><title>Ресурс 12</title><g id="Слой_2" data-name="Слой 2"><path class="cls-1" d="M6.32.19c0-.27.52-.22.68 0s.17.4.22.85c0 .22.47 3.77.83 7.53.33 3.58.57 7.36.63 8.28A19.87 19.87 0 0 1 8.6 22a7.78 7.78 0 0 1-1.4 2.1 8.2 8.2 0 0 0-1.63 2.3 9.52 9.52 0 0 0-.31 2.43c0 .42.32 9 .43 10.9.12 2.17.65 5.43 1 7.95s.47 4.87.52 7 0 4.21-.07 6.41-.46 5-.86 5.42a2.18 2.18 0 0 1-1.69.71A2.09 2.09 0 0 1 3 66.55C2.43 66 2.09 63.23 2 61s-.13-4.09-.1-6.3.12-4.73.34-7c.21-2.1.79-5.78.88-8 .07-1.81.33-10.21.33-10.9a7.45 7.45 0 0 0-.31-2.42 5.61 5.61 0 0 0-1.21-1.88A5.91 5.91 0 0 1 .2 21.79 21.11 21.11 0 0 1 .06 17c0-.85 0-4.28.09-7.69.08-3.86.22-7.68.22-7.89a2.1 2.1 0 0 1 .16-1C.63.3 1 .3 1 .5s.32 7 .39 8.78.31 7.26.35 7.63 0 .74.35.74.4-.45.42-.81 0-6.8 0-8.83S2.3.75 2.33.46a.23.23 0 1 1 .45 0C2.83.74 3.35 6 3.43 8s.47 8.38.5 8.7 0 .8.42.78.44-.48.44-.84-.08-7-.15-8.68S4.36.64 4.36.35a.25.25 0 0 1 .5 0c0 .36.52 5.58.64 7.57s.53 8.15.57 8.64 0 1 .41 1 .45-.66.45-1-.19-6.07-.29-8.6S6.31.47 6.32.19z" id="Layer_1" data-name="Layer 1"/></g></svg>