<svg xmlns="http://www.w3.org/2000/svg" width="860" height="5"><path fill-rule="evenodd" fill="#373534" d="M857.5 4.999A2.5 2.5 0 1 1 857.499 0a2.5 2.5 0 0 1 .001 5zM846 2.5a2.5 2.5 0 1 1 5.001-.001A2.5 2.5 0 0 1 846 2.5zm-9 0a2.5 2.5 0 1 1 5.001-.001A2.5 2.5 0 0 1 837 2.5zm-9 0a2.5 2.5 0 1 1 5.001-.001A2.5 2.5 0 0 1 828 2.5zm-9 0a2.5 2.5 0 1 1 5.001-.001A2.5 2.5 0 0 1 819 2.5zm-9 0a2.5 2.5 0 1 1 5.001-.001A2.5 2.5 0 0 1 810 2.5zm-9 0a2.5 2.5 0 1 1 5.001-.001A2.5 2.5 0 0 1 801 2.5zm-9 0a2.5 2.5 0 1 1 5.001-.001A2.5 2.5 0 0 1 792 2.5zm-9 0a2.5 2.5 0 1 1 5.001-.001A2.5 2.5 0 0 1 783 2.5zm-9 0a2.5 2.5 0 1 1 5.001-.001A2.5 2.5 0 0 1 774 2.5zm-9 0a2.5 2.5 0 1 1 5.001-.001A2.5 2.5 0 0 1 765 2.5zm-9 0a2.5 2.5 0 1 1 5.001-.001A2.5 2.5 0 0 1 756 2.5zm-9 0a2.5 2.5 0 1 1 5.001-.001A2.5 2.5 0 0 1 747 2.5zm-9 0a2.5 2.5 0 1 1 5.001-.001A2.5 2.5 0 0 1 738 2.5zm-9 0a2.5 2.5 0 1 1 5.001-.001A2.5 2.5 0 0 1 729 2.5zm-9 0a2.5 2.5 0 1 1 5.001-.001A2.5 2.5 0 0 1 720 2.5zm-9 0a2.5 2.5 0 1 1 5.001-.001A2.5 2.5 0 0 1 711 2.5zm-9 0a2.5 2.5 0 1 1 5.001-.001A2.5 2.5 0 0 1 702 2.5zm-9 0a2.5 2.5 0 1 1 5.001-.001A2.5 2.5 0 0 1 693 2.5zm-9 0a2.5 2.5 0 1 1 5.001-.001A2.5 2.5 0 0 1 684 2.5zm-9 0a2.5 2.5 0 1 1 5.001-.001A2.5 2.5 0 0 1 675 2.5zm-9 0a2.5 2.5 0 1 1 5.001-.001A2.5 2.5 0 0 1 666 2.5zm-9 0a2.5 2.5 0 1 1 5.001-.001A2.5 2.5 0 0 1 657 2.5zm-9 0a2.5 2.5 0 1 1 5.001-.001A2.5 2.5 0 0 1 648 2.5zm-9 0a2.5 2.5 0 1 1 5.001-.001A2.5 2.5 0 0 1 639 2.5zm-9 0a2.5 2.5 0 1 1 5.001-.001A2.5 2.5 0 0 1 630 2.5zm-9 0a2.5 2.5 0 1 1 5.001-.001A2.5 2.5 0 0 1 621 2.5zm-9 0a2.5 2.5 0 1 1 5.001-.001A2.5 2.5 0 0 1 612 2.5zm-9 0a2.5 2.5 0 1 1 5.001-.001A2.5 2.5 0 0 1 603 2.5zm-9 0a2.5 2.5 0 1 1 5.001-.001A2.5 2.5 0 0 1 594 2.5zm-9 0a2.5 2.5 0 1 1 5.001-.001A2.5 2.5 0 0 1 585 2.5zm-9 0a2.5 2.5 0 1 1 5.001-.001A2.5 2.5 0 0 1 576 2.5zm-9 0a2.5 2.5 0 1 1 5.001-.001A2.5 2.5 0 0 1 567 2.5zm-9 0a2.5 2.5 0 1 1 5.001-.001A2.5 2.5 0 0 1 558 2.5zm-9 0a2.5 2.5 0 1 1 5.001-.001A2.5 2.5 0 0 1 549 2.5zm-9 0a2.5 2.5 0 1 1 5.001-.001A2.5 2.5 0 0 1 540 2.5zm-9 0a2.5 2.5 0 1 1 5.001-.001A2.5 2.5 0 0 1 531 2.5zm-9 0a2.5 2.5 0 1 1 5.001-.001A2.5 2.5 0 0 1 522 2.5zm-9 0a2.5 2.5 0 1 1 5.001-.001A2.5 2.5 0 0 1 513 2.5zm-9 0a2.5 2.5 0 1 1 5.001-.001A2.5 2.5 0 0 1 504 2.5zm-9 0a2.5 2.5 0 1 1 5.001-.001A2.5 2.5 0 0 1 495 2.5zm-9 0a2.5 2.5 0 1 1 5.001-.001A2.5 2.5 0 0 1 486 2.5zm-9 0a2.5 2.5 0 1 1 5.001-.001A2.5 2.5 0 0 1 477 2.5zm-9 0a2.5 2.5 0 1 1 5.001-.001A2.5 2.5 0 0 1 468 2.5zm-9 0a2.5 2.5 0 1 1 5.001-.001A2.5 2.5 0 0 1 459 2.5zm-9 0a2.5 2.5 0 1 1 5.001-.001A2.5 2.5 0 0 1 450 2.5zm-9 0a2.5 2.5 0 1 1 5.001-.001A2.5 2.5 0 0 1 441 2.5zm-9 0a2.5 2.5 0 1 1 5.001-.001A2.5 2.5 0 0 1 432 2.5zm-9 0a2.5 2.5 0 1 1 5.001-.001A2.5 2.5 0 0 1 423 2.5zm-9 0a2.5 2.5 0 1 1 5.001-.001A2.5 2.5 0 0 1 414 2.5zm-9 0a2.5 2.5 0 1 1 5.001-.001A2.5 2.5 0 0 1 405 2.5zm-9 0a2.5 2.5 0 1 1 5.001-.001A2.5 2.5 0 0 1 396 2.5zm-9 0a2.5 2.5 0 1 1 5.001-.001A2.5 2.5 0 0 1 387 2.5zm-9 0a2.5 2.5 0 1 1 5.001-.001A2.5 2.5 0 0 1 378 2.5zm-9 0a2.5 2.5 0 1 1 5.001-.001A2.5 2.5 0 0 1 369 2.5zm-9 0a2.5 2.5 0 1 1 5.001-.001A2.5 2.5 0 0 1 360 2.5zm-9 0a2.5 2.5 0 1 1 5.001-.001A2.5 2.5 0 0 1 351 2.5zm-9 0a2.5 2.5 0 1 1 5.001-.001A2.5 2.5 0 0 1 342 2.5zm-9 0a2.5 2.5 0 1 1 5.001-.001A2.5 2.5 0 0 1 333 2.5zm-9 0a2.5 2.5 0 1 1 5.001-.001A2.5 2.5 0 0 1 324 2.5zm-9 0a2.5 2.5 0 1 1 5.001-.001A2.5 2.5 0 0 1 315 2.5zm-9 0a2.5 2.5 0 1 1 5.001-.001A2.5 2.5 0 0 1 306 2.5zm-9 0a2.5 2.5 0 1 1 5.001-.001A2.5 2.5 0 0 1 297 2.5zm-9 0a2.5 2.5 0 1 1 5.001-.001A2.5 2.5 0 0 1 288 2.5zm-9 0a2.5 2.5 0 1 1 5.001-.001A2.5 2.5 0 0 1 279 2.5zm-9 0a2.5 2.5 0 1 1 5.001-.001A2.5 2.5 0 0 1 270 2.5zm-9 0a2.5 2.5 0 1 1 5.001-.001A2.5 2.5 0 0 1 261 2.5zm-9 0a2.5 2.5 0 1 1 5.001-.001A2.5 2.5 0 0 1 252 2.5zm-9 0a2.5 2.5 0 1 1 5.001-.001A2.5 2.5 0 0 1 243 2.5zm-9 0a2.5 2.5 0 1 1 5.001-.001A2.5 2.5 0 0 1 234 2.5zm-9 0a2.5 2.5 0 1 1 5.001-.001A2.5 2.5 0 0 1 225 2.5zm-9 0a2.5 2.5 0 1 1 5.001-.001A2.5 2.5 0 0 1 216 2.5zm-9 0a2.5 2.5 0 1 1 5.001-.001A2.5 2.5 0 0 1 207 2.5zm-9 0a2.5 2.5 0 1 1 5.001-.001A2.5 2.5 0 0 1 198 2.5zm-9 0a2.5 2.5 0 1 1 5.001-.001A2.5 2.5 0 0 1 189 2.5zm-9 0a2.5 2.5 0 1 1 5.001-.001A2.5 2.5 0 0 1 180 2.5zm-9 0a2.5 2.5 0 1 1 5.001-.001A2.5 2.5 0 0 1 171 2.5zm-9 0a2.5 2.5 0 1 1 5.001-.001A2.5 2.5 0 0 1 162 2.5zm-9 0a2.5 2.5 0 1 1 5.001-.001A2.5 2.5 0 0 1 153 2.5zm-9 0a2.5 2.5 0 1 1 5.001-.001A2.5 2.5 0 0 1 144 2.5zm-9 0a2.5 2.5 0 1 1 5.001-.001A2.5 2.5 0 0 1 135 2.5zm-9 0a2.5 2.5 0 1 1 5.001-.001A2.5 2.5 0 0 1 126 2.5zm-9 0a2.5 2.5 0 1 1 5.001-.001A2.5 2.5 0 0 1 117 2.5zm-9 0a2.5 2.5 0 1 1 5.001-.001A2.5 2.5 0 0 1 108 2.5zm-9 0a2.5 2.5 0 1 1 5.001-.001A2.5 2.5 0 0 1 99 2.5zm-9 0a2.5 2.5 0 1 1 5.001-.001A2.5 2.5 0 0 1 90 2.5zm-9 0a2.5 2.5 0 1 1 5.001-.001A2.5 2.5 0 0 1 81 2.5zm-9 0a2.5 2.5 0 1 1 5.001-.001A2.5 2.5 0 0 1 72 2.5zm-9 0a2.5 2.5 0 1 1 5.001-.001A2.5 2.5 0 0 1 63 2.5zm-9 0a2.5 2.5 0 1 1 5.001-.001A2.5 2.5 0 0 1 54 2.5zm-9 0a2.5 2.5 0 1 1 5.001-.001A2.5 2.5 0 0 1 45 2.5zm-9 0a2.5 2.5 0 1 1 5.001-.001A2.5 2.5 0 0 1 36 2.5zm-9 0a2.5 2.5 0 1 1 5.001-.001A2.5 2.5 0 0 1 27 2.5zm-9 0a2.5 2.5 0 1 1 5.001-.001A2.5 2.5 0 0 1 18 2.5zm-9 0a2.5 2.5 0 1 1 5.001-.001A2.5 2.5 0 0 1 9 2.5zm-9 0a2.5 2.5 0 1 1 5.001-.001A2.5 2.5 0 0 1 0 2.5z"/></svg>