<svg xmlns="http://www.w3.org/2000/svg" width="176" height="3"><path fill-rule="evenodd" fill="#F1F1F1" d="M174.312 2.999a1.5 1.5 0 1 1 .001-3.001 1.5 1.5 0 0 1-.001 3.001zm-6.937-1.5a1.5 1.5 0 1 1 3 0 1.5 1.5 0 0 1-3 0zm-5.375 0a1.5 1.5 0 1 1 3 0 1.5 1.5 0 0 1-3 0zm-5.406 0a1.5 1.5 0 1 1 3 0 1.5 1.5 0 0 1-3 0zm-5.407 0a1.5 1.5 0 1 1 3.001.001 1.5 1.5 0 0 1-3.001-.001zm-5.375 0a1.5 1.5 0 1 1 3.001.001 1.5 1.5 0 0 1-3.001-.001zm-5.437 0a1.5 1.5 0 1 1 3 0 1.5 1.5 0 0 1-3 0zm-5.375 0a1.5 1.5 0 1 1 3 0 1.5 1.5 0 0 1-3 0zm-5.406 0a1.5 1.5 0 1 1 3 0 1.5 1.5 0 0 1-3 0zm-5.407 0a1.5 1.5 0 1 1 3.001.001 1.5 1.5 0 0 1-3.001-.001zm-5.375 0a1.5 1.5 0 1 1 3.001.001 1.5 1.5 0 0 1-3.001-.001zm-5.437 0a1.5 1.5 0 1 1 3 0 1.5 1.5 0 0 1-3 0zm-5.375 0a1.5 1.5 0 1 1 3 0 1.5 1.5 0 0 1-3 0zm-5.406 0a1.5 1.5 0 1 1 3 0 1.5 1.5 0 0 1-3 0zm-5.407 0a1.5 1.5 0 1 1 3.001.001 1.5 1.5 0 0 1-3.001-.001zm-5.375 0a1.5 1.5 0 1 1 3.001.001 1.5 1.5 0 0 1-3.001-.001zm-5.437 0a1.5 1.5 0 1 1 3 0 1.5 1.5 0 0 1-3 0zm-5.375 0a1.5 1.5 0 1 1 3 0 1.5 1.5 0 0 1-3 0zm-5.407 0a1.5 1.5 0 1 1 3.001.001 1.5 1.5 0 0 1-3.001-.001zm-5.406 0a1.5 1.5 0 1 1 3.001.001 1.5 1.5 0 0 1-3.001-.001zm-5.375 0a1.5 1.5 0 1 1 3.001.001 1.5 1.5 0 0 1-3.001-.001zm-5.437 0a1.5 1.5 0 1 1 3 0 1.5 1.5 0 0 1-3 0zm-5.375 0a1.5 1.5 0 1 1 3 0 1.5 1.5 0 0 1-3 0zm-5.406 0a1.5 1.5 0 1 1 3 0 1.5 1.5 0 0 1-3 0zm-5.407 0a1.5 1.5 0 1 1 3.001.001 1.5 1.5 0 0 1-3.001-.001zm-5.375 0a1.5 1.5 0 1 1 3.001.001 1.5 1.5 0 0 1-3.001-.001zm-5.437 0a1.5 1.5 0 1 1 3 0 1.5 1.5 0 0 1-3 0zm-5.375 0a1.5 1.5 0 1 1 3 0 1.5 1.5 0 0 1-3 0zm-5.406 0a1.5 1.5 0 1 1 3 0 1.5 1.5 0 0 1-3 0zm-5.407 0a1.5 1.5 0 1 1 3.001.001 1.5 1.5 0 0 1-3.001-.001zm-5.375 0a1.5 1.5 0 1 1 3.001.001 1.5 1.5 0 0 1-3.001-.001zm-5.437 0a1.5 1.5 0 1 1 3 0 1.5 1.5 0 0 1-3 0zM0 1.499a1.5 1.5 0 1 1 3 0 1.5 1.5 0 0 1-3 0z"/></svg>