<svg xmlns="http://www.w3.org/2000/svg" width="6" height="860"><path fill-rule="evenodd" fill="#373534" d="M3.291 859.999a2.472 2.472 0 0 1-2.472-2.472v-.056a2.472 2.472 0 1 1 4.944 0v.056a2.472 2.472 0 0 1-2.472 2.472zM.819 848.527v-.056a2.472 2.472 0 0 1 4.944 0v.056a2.472 2.472 0 1 1-4.944 0zm0-8.968v-.057a2.471 2.471 0 0 1 4.944 0v.057a2.472 2.472 0 0 1-4.944 0zm0-9v-.088a2.472 2.472 0 0 1 4.944 0v.088a2.471 2.471 0 0 1-4.944 0zm0-9.032v-.056a2.472 2.472 0 0 1 4.944 0v.056a2.472 2.472 0 0 1-4.944 0zm0-8.999v-.057a2.472 2.472 0 0 1 4.944 0v.057a2.472 2.472 0 0 1-4.944 0zm0-9.001v-.056a2.472 2.472 0 0 1 4.944 0v.056a2.472 2.472 0 1 1-4.944 0zm0-9v-.056a2.472 2.472 0 0 1 4.944 0v.056a2.472 2.472 0 1 1-4.944 0zm0-9v-.025a2.472 2.472 0 0 1 4.944 0v.025a2.472 2.472 0 1 1-4.944 0zm0-8.968v-.057a2.471 2.471 0 0 1 4.944 0v.057a2.472 2.472 0 0 1-4.944 0zm0-9.032v-.056a2.472 2.472 0 0 1 4.944 0v.056a2.472 2.472 0 1 1-4.944 0zm0-9v-.056a2.472 2.472 0 0 1 4.944 0v.056a2.472 2.472 0 0 1-4.944 0zm0-9v-.056a2.472 2.472 0 0 1 4.944 0v.056a2.472 2.472 0 0 1-4.944 0zm0-8.999v-.058a2.472 2.472 0 0 1 4.944 0v.058a2.471 2.471 0 0 1-4.944 0zm0-9.001v-.056a2.472 2.472 0 1 1 4.944 0v.056a2.472 2.472 0 0 1-4.944 0zm0-8.999v-.026a2.472 2.472 0 0 1 4.944 0v.026a2.471 2.471 0 0 1-4.944 0zm0-9.001v-.056a2.471 2.471 0 0 1 4.944 0v.056a2.472 2.472 0 0 1-4.944 0zm0-9v-.056a2.472 2.472 0 0 1 4.944 0v.056a2.472 2.472 0 1 1-4.944 0zm0-9v-.056a2.472 2.472 0 0 1 4.944 0v.056a2.473 2.473 0 0 1-4.944 0zm0-9v-.056a2.472 2.472 0 0 1 4.944 0v.056a2.472 2.472 0 0 1-4.944 0zm0-8.999v-.057a2.472 2.472 0 0 1 4.944 0v.057a2.472 2.472 0 0 1-4.944 0zm0-9.001v-.056a2.472 2.472 0 1 1 4.944 0v.056a2.472 2.472 0 0 1-4.944 0zm0-8.968v-.088a2.472 2.472 0 0 1 4.944 0v.088a2.471 2.471 0 0 1-4.944 0zm0-9.032v-.056a2.472 2.472 0 0 1 4.944 0v.056a2.472 2.472 0 1 1-4.944 0zm0-9v-.056a2.472 2.472 0 0 1 4.944 0v.056a2.472 2.472 0 1 1-4.944 0zm0-9v-.056a2.472 2.472 0 0 1 4.944 0v.056a2.473 2.473 0 0 1-4.944 0zm0-9v-.056a2.472 2.472 0 0 1 4.944 0v.056a2.472 2.472 0 0 1-4.944 0zm0-9v-.056a2.472 2.472 0 0 1 4.944 0v.056a2.472 2.472 0 1 1-4.944 0zm0-9v-.025a2.472 2.472 0 0 1 4.944 0v.025a2.472 2.472 0 1 1-4.944 0zm0-8.999v-.057a2.472 2.472 0 0 1 4.944 0v.057a2.472 2.472 0 0 1-4.944 0zm0-9.001v-.056a2.472 2.472 0 0 1 4.944 0v.056a2.472 2.472 0 1 1-4.944 0zm0-9v-.056a2.472 2.472 0 0 1 4.944 0v.056a2.472 2.472 0 1 1-4.944 0zm0-9v-.056a2.472 2.472 0 0 1 4.944 0v.056a2.472 2.472 0 0 1-4.944 0zm0-9v-.056a2.472 2.472 0 0 1 4.944 0v.056a2.472 2.472 0 0 1-4.944 0zm0-8.999v-.057a2.472 2.472 0 0 1 4.944 0v.057a2.472 2.472 0 0 1-4.944 0zm0-8.969v-.088a2.472 2.472 0 1 1 4.944 0v.088a2.471 2.471 0 0 1-4.944 0zm0-9.031v-.057a2.472 2.472 0 0 1 4.944 0v.057a2.472 2.472 0 0 1-4.944 0zm0-9.001v-.057a2.471 2.471 0 0 1 4.944 0v.057a2.472 2.472 0 1 1-4.944 0zm0-9v-.056a2.472 2.472 0 0 1 4.944 0v.056a2.472 2.472 0 1 1-4.944 0zm0-8.999v-.057a2.472 2.472 0 0 1 4.944 0v.057a2.472 2.472 0 0 1-4.944 0zm0-9.001v-.056a2.472 2.472 0 0 1 4.944 0v.056a2.472 2.472 0 0 1-4.944 0zm0-8.999v-.057a2.472 2.472 0 0 1 4.944 0v.057a2.472 2.472 0 0 1-4.944 0zm0-9.001v-.056a2.472 2.472 0 1 1 4.944 0v.056a2.472 2.472 0 0 1-4.944 0zm0-9v-.056a2.472 2.472 0 0 1 4.944 0v.056a2.472 2.472 0 0 1-4.944 0zm0-9v-.056a2.472 2.472 0 0 1 4.944 0v.056a2.472 2.472 0 1 1-4.944 0zm0-9v-.056a2.472 2.472 0 0 1 4.944 0v.056a2.472 2.472 0 1 1-4.944 0zm0-9v-.056a2.472 2.472 0 0 1 4.944 0v.056a2.472 2.472 0 0 1-4.944 0zm0-9v-.056a2.472 2.472 0 0 1 4.944 0v.056a2.472 2.472 0 1 1-4.944 0zm0-9v-.056a2.472 2.472 0 0 1 4.944 0v.056a2.472 2.472 0 0 1-4.944 0zm0-9v-.056a2.472 2.472 0 0 1 4.944 0v.056a2.472 2.472 0 1 1-4.944 0zm0-9v-.056a2.472 2.472 0 0 1 4.944 0v.056a2.472 2.472 0 0 1-4.944 0zm0-9v-.056a2.472 2.472 0 1 1 4.944 0v.056a2.472 2.472 0 1 1-4.944 0zm0-9v-.056a2.472 2.472 0 0 1 4.944 0v.056a2.472 2.472 0 1 1-4.944 0zm0-9v-.056a2.472 2.472 0 0 1 4.944 0v.056a2.472 2.472 0 0 1-4.944 0zm0-9v-.056a2.472 2.472 0 0 1 4.944 0v.056a2.472 2.472 0 1 1-4.944 0zm0-9v-.056a2.472 2.472 0 0 1 4.944 0v.056a2.472 2.472 0 0 1-4.944 0zm0-8.999v-.057a2.472 2.472 0 0 1 4.944 0v.057a2.472 2.472 0 0 1-4.944 0zm0-9v-.058a2.472 2.472 0 0 1 4.944 0v.058a2.472 2.472 0 0 1-4.944 0zm0-9.001v-.056a2.472 2.472 0 1 1 4.944 0v.056a2.472 2.472 0 1 1-4.944 0zm0-8.999v-.057a2.472 2.472 0 0 1 4.944 0v.057a2.471 2.471 0 0 1-4.944 0zm0-9.001v-.088a2.472 2.472 0 0 1 4.944 0v.088a2.472 2.472 0 0 1-4.944 0zm0-9.031v-.025a2.472 2.472 0 0 1 4.944 0v.025a2.472 2.472 0 0 1-4.944 0zm0-8.969v-.056a2.472 2.472 0 0 1 4.944 0v.056a2.472 2.472 0 0 1-4.944 0zm0-9v-.056a2.472 2.472 0 0 1 4.944 0v.056a2.472 2.472 0 0 1-4.944 0zm0-9v-.056a2.472 2.472 0 0 1 4.944 0v.056a2.472 2.472 0 0 1-4.944 0zm0-9v-.056a2.472 2.472 0 0 1 4.944 0v.056a2.472 2.472 0 1 1-4.944 0zm0-8.999v-.057a2.472 2.472 0 0 1 4.944 0v.057a2.471 2.471 0 0 1-4.944 0zm0-9.031v-.058a2.471 2.471 0 0 1 4.944 0v.058a2.472 2.472 0 0 1-4.944 0zm0-8.97v-.056a2.472 2.472 0 0 1 4.944 0v.056a2.472 2.472 0 1 1-4.944 0zm0-9v-.056a2.472 2.472 0 0 1 4.944 0v.056a2.472 2.472 0 0 1-4.944 0zm0-9v-.056a2.472 2.472 0 0 1 4.944 0v.056a2.472 2.472 0 1 1-4.944 0zm0-9v-.056a2.472 2.472 0 0 1 4.944 0v.056a2.472 2.472 0 0 1-4.944 0zm0-9v-.056a2.472 2.472 0 1 1 4.944 0v.056a2.472 2.472 0 0 1-4.944 0zm0-8.999v-.088a2.472 2.472 0 1 1 4.944 0v.088a2.471 2.471 0 0 1-4.944 0zm0-9.032v-.025a2.472 2.472 0 0 1 4.944 0v.025a2.472 2.472 0 0 1-4.944 0zm0-8.969v-.056a2.472 2.472 0 1 1 4.944 0v.056a2.472 2.472 0 1 1-4.944 0zm0-9v-.056a2.472 2.472 0 0 1 4.944 0v.056a2.473 2.473 0 0 1-4.944 0zm0-8.999v-.057a2.472 2.472 0 0 1 4.944 0v.057a2.472 2.472 0 0 1-4.944 0zm0-9v-.057a2.472 2.472 0 0 1 4.944 0v.057a2.472 2.472 0 0 1-4.944 0zm0-9.001v-.056a2.472 2.472 0 1 1 4.944 0v.056a2.472 2.472 0 0 1-4.944 0zm0-9.031v-.056a2.472 2.472 0 1 1 4.944 0v.056a2.471 2.471 0 0 1-4.944 0zm0-8.969v-.056a2.472 2.472 0 0 1 4.944 0v.056a2.472 2.472 0 1 1-4.944 0zm0-9v-.056a2.472 2.472 0 0 1 4.944 0v.056a2.472 2.472 0 1 1-4.944 0zm0-8.999v-.057a2.472 2.472 0 0 1 4.944 0v.057a2.472 2.472 0 0 1-4.944 0zm0-9.001v-.056a2.472 2.472 0 0 1 4.944 0v.056a2.472 2.472 0 0 1-4.944 0zm0-9v-.056a2.472 2.472 0 0 1 4.944 0v.056a2.472 2.472 0 0 1-4.944 0zm0-9.031v-.056a2.472 2.472 0 1 1 4.944 0v.056a2.472 2.472 0 0 1-4.944 0zm0-9v-.025a2.472 2.472 0 0 1 4.944 0v.025a2.472 2.472 0 0 1-4.944 0zm0-8.969v-.056a2.472 2.472 0 0 1 4.944 0v.056a2.472 2.472 0 1 1-4.944 0zm0-9v-.056a2.472 2.472 0 0 1 4.944 0v.056a2.472 2.472 0 1 1-4.944 0zm0-9v-.056a2.472 2.472 0 0 1 4.944 0v.056a2.472 2.472 0 0 1-4.944 0zm0-9v-.056a2.472 2.472 0 0 1 4.944 0v.056a2.472 2.472 0 0 1-4.944 0zm0-9v-.087a2.472 2.472 0 0 1 4.944 0v.087a2.472 2.472 0 0 1-4.944 0zm0-9.031v-.057a2.471 2.471 0 0 1 4.944 0v.057a2.472 2.472 0 0 1-4.944 0zm0-8.968v-.058a2.472 2.472 0 0 1 4.944 0v.058a2.471 2.471 0 0 1-4.944 0zm0-9.001v-.056a2.472 2.472 0 0 1 4.944 0v.056a2.472 2.472 0 1 1-4.944 0z"/></svg>